<?xml version="1.0" encoding="UTF-8" standalone="no"?>
<svg
   xmlns:dc="http://purl.org/dc/elements/1.1/"
   xmlns:cc="http://creativecommons.org/ns#"
   xmlns:rdf="http://www.w3.org/1999/02/22-rdf-syntax-ns#"
   xmlns:svg="http://www.w3.org/2000/svg"
   xmlns="http://www.w3.org/2000/svg"
   viewBox="0 0 2560 2560"
   height="2560"
   width="2560"
   xml:space="preserve"
   id="svg2"
   version="1.1"><metadata
     id="metadata8"><rdf:RDF><cc:Work
         rdf:about=""><dc:format>image/svg+xml</dc:format><dc:type
           rdf:resource="http://purl.org/dc/dcmitype/StillImage" /></cc:Work></rdf:RDF></metadata><defs
     id="defs6"><clipPath
       id="clipPath18"
       clipPathUnits="userSpaceOnUse"><path
         id="path16"
         d="M 0,1920 H 1920 V 0 H 0 Z" /></clipPath></defs><g
     transform="matrix(1.3333333,0,0,-1.3333333,0,2560)"
     id="g10"><g
       id="g12"><g
         clip-path="url(#clipPath18)"
         id="g14"><g
           transform="translate(1918.1602,960.9155)"
           id="g20"><path
             id="path22"
             style="fill:#87171c;fill-opacity:1;fill-rule:nonzero;stroke:none"
             d="m 0,0 c 0,-529.686 -429.396,-959.082 -959.082,-959.082 -529.686,0 -959.081,429.396 -959.081,959.082 0,529.686 429.395,959.082 959.081,959.082 C -429.396,959.082 0,529.686 0,0" /></g><path
           id="path24"
           style="fill:#ffffff;fill-opacity:1;fill-rule:nonzero;stroke:none"
           d="M 1491.21,1335.267 H 405.762 v 148.719 H 1491.21 Z" /><path
           id="path26"
           style="fill:#ffffff;fill-opacity:1;fill-rule:nonzero;stroke:none"
           d="M 947.627,567.762 H 539.099 v 264.956 h 408.528 z m 606.834,405.121 -70.086,305.113 H 405.762 L 340.807,972.883 V 832.718 h 76.922 V 437.853 h 663.235 v 394.865 h 271.784 V 437.853 h 131.627 v 394.865 h 70.086 z" /></g></g></g></svg>